# Blender v2.77 (sub 0) OBJ File: ''
# www.blender.org
mtllib Small Asteroid.mtl
o MODELS_bin_051:poly000
v 0.421875 0.812500 -2.921875
v 0.093750 0.878906 -2.164063
v -0.015625 0.066407 -3.113281
v -0.402344 -0.234375 -2.257813
v 1.160156 -2.539063 1.156250
v 2.058594 -1.609375 1.414063
v 2.082031 -2.085938 0.722656
v 2.984375 -0.246094 1.050781
v 1.824219 -2.542969 -0.066406
v 2.355469 -2.300781 -0.789063
v -1.890625 0.421875 1.808594
v -1.687500 0.523438 2.136719
v -2.164063 -0.148438 1.796875
v -0.097656 -0.007813 3.023438
v -1.273438 -0.964844 2.675781
v 0.171875 -0.917969 2.097656
v -0.597656 -1.460938 2.058594
v -0.152344 -2.367188 1.714844
v 0.832031 2.277344 -1.144531
v 0.968750 2.343750 -0.390625
v 0.105469 2.460938 -0.410156
v -0.003906 2.894531 0.238281
v 2.566406 1.171875 0.757813
v 2.148438 1.031250 0.378906
v 2.785156 0.988281 0.492188
v 2.832031 0.781250 -0.015625
v -1.386719 1.859375 0.105469
v -1.367188 2.726563 0.492188
v -1.871094 2.222656 0.550781
v -1.175781 2.578125 1.046875
v -0.691406 2.039063 1.566406
v -0.804688 2.640625 1.371094
v 0.527344 2.566406 1.175781
v -0.351563 3.019531 0.812500
v 0.562500 3.007813 0.671875
v -2.468750 -0.488281 1.546875
v -2.085938 -0.992188 1.578125
v -2.519531 -0.492188 1.226563
v -2.312500 -0.566406 0.910156
v -2.371094 0.386719 0.925781
v -2.128906 -0.101563 1.277344
v -0.417969 0.000000 -1.730469
v -0.964844 -0.527344 -1.542969
v -0.566406 -0.875000 -2.242188
v 0.164063 -0.507812 -3.011719
v 1.089844 -0.894531 -2.722656
v -1.144531 0.121094 -1.074219
v -2.480469 0.648438 0.550781
v -2.433594 0.523438 -0.511719
v -2.335938 1.183594 0.464844
v -2.699219 0.652344 0.800781
v -1.328125 -1.566406 -1.785156
v -1.687500 -2.042969 -1.277344
v -1.183594 -1.664063 -1.367188
v -1.207031 -2.347656 -1.085938
v -1.097656 -1.835938 -0.886719
v -0.777344 -1.843750 -0.496094
v 1.273438 -2.679688 0.574219
v 0.652344 -2.703125 1.207031
v 0.996094 -2.789063 0.496094
v 0.214844 -2.960938 0.792969
v 1.308594 -2.789063 -0.222656
v 0.371094 -2.968750 0.140625
v 0.523438 -2.863281 -0.468750
v -0.882813 -2.683594 1.390625
v -0.531250 -2.843750 -0.375000
v -1.230469 -2.285156 0.527344
v -0.933594 -2.652344 -0.539063
v -1.734375 -2.222656 -0.226563
v -1.781250 -2.343750 -0.699219
v -1.933594 -0.691406 -1.164063
v -1.242188 -0.656250 -1.390625
v 2.457031 1.265625 -1.101563
v 2.554688 1.132813 -0.785156
v 1.667969 1.144531 -0.398438
v 0.785156 1.699219 -2.347656
v 0.398438 1.621094 -1.585938
v 1.562500 -0.125000 2.671875
v 2.015625 0.730469 2.101563
v 1.699219 -0.347656 2.480469
v 1.699219 -0.628906 1.582031
v 2.890625 -0.253906 -0.363281
v 2.164063 -0.011719 -1.089844
v 2.242188 -1.628906 -1.417969
v 1.824219 -1.308594 -1.929688
v 1.789063 -1.621094 -1.796875
v 1.460938 -1.039063 -2.523438
v -2.457031 0.902344 0.765625
v -1.890625 0.468750 1.515625
v -2.078125 -0.000000 1.414063
v 2.015625 1.320313 1.125000
v 1.382813 1.492188 1.457031
v 0.648438 0.937500 2.097656
v 0.953125 1.558594 1.324219
v 0.472656 1.929688 1.300781
v 0.832031 2.226563 1.000000
v 1.496094 2.179688 -1.378906
v 1.089844 2.234375 -0.832031
v 1.207031 1.675781 -0.765625
v -0.636719 1.523438 1.746094
v -1.093750 1.093750 2.257813
v -1.445313 0.707031 1.468750
v 1.296875 -1.515625 -2.031250
v 0.671875 -1.273438 1.500000
v -2.453125 -0.843750 0.230469
v 1.921875 1.812500 -1.468750
v 1.527344 -2.191406 -1.308594
v 1.449219 -1.957031 -1.511719
v -0.656250 -1.363281 -0.792969
v 0.656250 -0.953125 -1.558594
v 0.175781 -0.769531 -1.546875
v -1.871094 0.406250 -0.800781
v -2.285156 -0.792969 -0.507813
v 1.273438 1.437500 -0.367188
v -0.960938 1.496094 1.207031
v 0.324219 1.312500 1.691406
v 1.695313 -2.425781 -0.710938
vt 0.5713 0.2188
vt 0.5674 0.1465
vt 0.5391 0.2236
vt 0.5195 0.1074
vt 0.0039 0.6299
vt 0.0391 0.6270
vt 0.0771 0.5713
vt 0.1670 0.6016
vt 0.0059 0.6934
vt 0.0410 0.7432
vt 0.6660 0.2295
vt 0.6475 0.2793
vt 0.6846 0.2217
vt 0.8125 0.2598
vt 0.7109 0.3408
vt 0.8271 0.3389
vt 0.7734 0.4062
vt 0.7969 0.4688
vt 0.4160 0.8340
vt 0.4404 0.7910
vt 0.4248 0.7861
vt 0.4561 0.7451
vt 0.1035 0.3008
vt 0.0938 0.2686
vt 0.0703 0.2861
vt 0.0732 0.2246
vt 0.6719 0.0400
vt 0.6709 0.0586
vt 0.7100 0.0273
vt 0.7334 0.0273
vt 0.7666 0.0830
vt 0.7617 0.0264
vt 0.8818 0.0264
vt 0.7900 0.0059
vt 0.8594 0.0049
vt 0.6494 0.5176
vt 0.6279 0.5283
vt 0.6846 0.5166
vt 0.5947 0.5566
vt 0.5889 0.3154
vt 0.6084 0.3125
vt 0.5859 0.2324
vt 0.6387 0.2773
vt 0.4961 0.8799
vt 0.5371 0.9170
vt 0.5049 0.8545
vt 0.5791 0.8906
vt 0.6084 0.9727
vt 0.6885 0.9932
vt 0.4619 0.0684
vt 0.4189 0.1230
vt 0.4854 0.1299
vt 0.4336 0.4131
vt 0.2832 0.2900
vt 0.3662 0.4268
vt 0.2705 0.3467
vt 0.2998 0.4277
vt 0.2549 0.3828
vt 0.2451 0.4199
vt 0.2070 0.1406
vt 0.2227 0.1982
vt 0.2783 0.0986
vt 0.2549 0.2959
vt 0.5820 0.2109
vt 0.5947 0.2041
vt 0.1357 0.4756
vt 0.1338 0.4307
vt 0.0947 0.4336
vt 0.0723 0.3955
vt 0.1006 0.3896
vt 0.0957 0.3438
vt 0.9248 0.8037
vt 0.9072 0.7373
vt 0.9033 0.8438
vt 0.8955 0.7734
vt 0.8877 0.7021
vt 0.8828 0.7676
vt 0.8633 0.7041
vt 0.8789 0.8330
vt 0.8555 0.7510
vt 0.8477 0.7979
vt 0.8154 0.6104
vt 0.7881 0.7305
vt 0.7627 0.6357
vt 0.7471 0.7227
vt 0.7090 0.6611
vt 0.6846 0.7324
vt 0.6768 0.7041
vt 0.6436 0.7471
vt 0.5400 0.7236
vt 0.5938 0.7695
vt 0.5225 0.7891
vt 0.4727 0.8086
vt 0.0117 0.1758
vt 0.0039 0.2627
vt 0.0254 0.1914
vt 0.0576 0.3008
vt 0.5566 0.3066
vt 0.5166 0.3154
vt 0.2031 0.4844
vt 0.1855 0.4951
vt 0.2637 0.5195
vt 0.2852 0.5947
vt 0.1260 0.5342
vt 0.2764 0.6172
vt 0.2637 0.6582
vt 0.1875 0.6904
vt 0.2080 0.7793
vt 0.0762 0.7930
vt 0.1016 0.8486
vt 0.0771 0.8350
vt 0.1260 0.9033
vt 0.6104 0.1807
vt 0.6074 0.1445
vt 0.6641 0.2246
vt 0.6504 0.2686
vt 0.9951 0.1309
vt 0.9463 0.1064
vt 0.9766 0.1973
vt 0.8965 0.1895
vt 0.9150 0.0742
vt 0.8848 0.0693
vt 0.9102 0.0430
vt 0.3682 0.8965
vt 0.3350 0.9092
vt 0.3809 0.8223
vt 0.4189 0.8174
vt 0.3506 0.7842
vt 0.4404 0.6729
vt 0.2822 0.6377
vt 0.2861 0.7393
vt 0.0273 0.3096
vt 0.0430 0.3408
vt 0.1836 0.2520
vt 0.1689 0.2090
vt 0.1768 0.2744
vt 0.1592 0.2295
vt 0.6230 0.3145
vt 0.6387 0.3516
vt 0.1904 0.4756
vt 0.1973 0.3525
vt 0.1641 0.4492
vt 0.1455 0.3574
vt 0.1553 0.3281
vt 0.4980 0.3955
vt 0.3115 0.9658
vt 0.2715 0.9668
vt 0.7627 0.4961
vt 0.8223 0.5654
vt 0.8486 0.6230
vt 0.7988 0.9697
vt 0.7627 0.9746
vt 0.7217 0.9961
vt 0.9766 0.3467
vt 0.8770 0.3770
vt 0.9883 0.3994
vt 0.9102 0.4795
vt 0.8682 0.4873
vt 0.3008 0.7715
vt 0.5449 0.5615
vt 0.5791 0.5996
vt 0.5205 0.5781
vt 0.9434 0.2627
vt 0.9541 0.2812
vt 0.1416 0.9287
vt 0.3594 0.8223
vt 0.1699 0.9854
vt 0.8682 0.9023
vt 0.8350 0.9229
vt 0.8340 0.9609
vt 0.8164 0.9434
vt 0.6875 0.7695
vt 0.7139 0.9131
vt 0.6738 0.8838
vt 0.4678 0.7236
vt 0.4902 0.6553
vt 0.5596 0.6621
vt 0.6777 0.7422
vt 0.6338 0.7646
vt 0.4209 0.6074
vt 0.3262 0.7432
vt 0.4053 0.5918
vt 0.3242 0.5547
vt 0.3408 0.1064
vt 0.3467 0.5479
vt 0.2979 0.7285
vt 0.1777 0.3135
vt 0.7197 0.7354
vt 0.7461 0.1592
vt 0.6973 0.1992
vt 0.7393 0.1152
vt 0.7666 0.1250
vt 0.8838 0.1289
vt 0.3760 0.5654
vt 0.1523 0.2812
vt 0.2090 0.9961
vt 0.8691 0.8828
vt 0.3438 0.4756
vt 0.1211 0.3008
vt 0.1279 0.2480
vt 0.1152 0.2744
vt 0.1768 0.0332
vt 0.1846 0.0596
vt 0.2090 0.0234
vt 0.5732 0.9688
vt 0.1396 0.1543
vt 0.1650 0.2002
vt 0.1553 0.1572
vn -0.1601 0.5388 -0.8271
vn -0.4371 0.1532 -0.8863
vn -0.8292 0.5044 -0.2406
vn -0.8219 0.3193 -0.4717
vn 0.1794 -0.7630 0.6210
vn 0.7710 -0.6131 0.1720
vn 0.3276 -0.4304 0.8411
vn 0.9963 0.0841 -0.0187
vn 0.5820 -0.8077 0.0947
vn 0.6822 -0.7136 -0.1592
vn -0.7997 0.5614 0.2127
vn -0.7594 0.1970 0.6201
vn -0.6609 0.5670 0.4917
vn 0.3017 0.0253 0.9531
vn -0.1786 0.0175 0.9838
vn 0.3484 -0.5495 0.7594
vn 0.1630 -0.4546 0.8757
vn 0.1225 -0.5827 0.8034
vn -0.0523 0.9306 -0.3622
vn -0.2318 0.6988 -0.6767
vn 0.8215 0.4868 0.2969
vn -0.1523 0.8831 -0.4438
vn 0.9689 0.2199 0.1133
vn 0.8469 0.4933 0.1985
vn 0.2635 0.9534 -0.1471
vn 0.8111 0.5784 -0.0870
vn -0.3275 0.5096 -0.7957
vn -0.6295 0.7770 -0.0100
vn -0.5501 0.7335 -0.3993
vn -0.5455 0.5929 0.5923
vn -0.2738 0.0919 0.9574
vn -0.3884 0.4440 0.8075
vn 0.4087 0.5690 0.7136
vn -0.1723 0.9728 0.1546
vn 0.5145 0.8095 0.2830
vn -0.9833 -0.0000 0.1821
vn -0.9574 0.1954 0.2128
vn -0.8392 -0.4739 0.2667
vn -0.9284 -0.3684 -0.0482
vn -0.8446 -0.5222 -0.1183
vn -0.7859 0.2568 0.5625
vn -0.7447 0.5130 -0.4269
vn -0.6387 0.4201 -0.6447
vn -0.8243 -0.4861 -0.2903
vn -0.2222 -0.0153 -0.9749
vn 0.2165 -0.5174 -0.8279
vn -0.4018 0.4195 -0.8139
vn -0.9825 0.0275 -0.1845
vn -0.9500 0.2459 0.1923
vn -0.8449 0.0223 -0.5344
vn -0.8892 0.0357 0.4562
vn -0.3113 -0.7087 -0.6331
vn 0.5525 -0.6659 -0.5014
vn -0.3605 -0.7610 -0.5394
vn 0.4509 -0.5038 -0.7368
vn 0.8084 -0.4299 -0.4021
vn 0.2355 -0.2971 -0.9254
vn 0.4590 -0.8502 0.2579
vn 0.2209 -0.8011 0.5563
vn 0.2755 -0.9468 0.1661
vn -0.1148 -0.9878 0.1050
vn 0.4315 -0.8742 -0.2226
vn -0.1545 -0.9772 -0.1458
vn -0.0359 -0.8545 -0.5183
vn -0.4630 -0.6587 0.5931
vn -0.2579 -0.8628 -0.4347
vn -0.6985 -0.7038 0.1296
vn -0.1921 -0.7481 -0.6352
vn -0.6488 -0.7483 0.1385
vn -0.0291 -0.9871 0.1574
vn -0.6523 0.0953 -0.7519
vn -0.4361 0.3910 -0.8105
vn 0.7396 0.4355 -0.5132
vn 0.3440 0.9035 0.2555
vn 0.8998 0.4035 0.1662
vn 0.8014 0.5292 -0.2788
vn -0.7240 0.5559 -0.4084
vn 0.4705 -0.0211 0.8822
vn 0.7183 -0.6031 0.3469
vn 0.4479 0.3668 0.8154
vn 0.4846 -0.4757 0.7341
vn 0.9395 0.0445 -0.3398
vn 0.8713 -0.0005 -0.4908
vn 0.7362 -0.1220 -0.6657
vn 0.8100 -0.0964 -0.5784
vn 0.4035 -0.6392 -0.6547
vn 0.5724 -0.0404 -0.8190
vn -0.6324 0.5925 0.4990
vn -0.6346 0.6847 0.3585
vn -0.9277 0.2334 0.2914
vn 0.2649 0.9624 0.0603
vn 0.2704 0.9462 0.1775
vn 0.1287 0.6882 0.7140
vn 0.3981 0.7693 0.4997
vn 0.2903 0.3264 0.8996
vn 0.7307 0.5905 0.3426
vn 0.4365 0.8428 -0.3148
vn 0.6650 0.7359 0.1274
vn 0.7641 0.5674 0.3069
vn -0.3666 0.5787 0.7285
vn -0.5615 0.7272 0.3948
vn -0.3172 0.7247 0.6117
vn -0.2116 -0.8766 -0.4322
vn 0.5950 -0.1753 0.7844
vn -0.9714 -0.2303 -0.0580
vn 0.3553 0.9205 0.1623
vn 0.0522 -0.7403 -0.6702
vn -0.1216 -0.7064 -0.6973
vn 0.4702 -0.6376 -0.6102
vn -0.5190 -0.8130 -0.2638
vn 0.0785 -0.9340 -0.3486
vn -0.2257 0.4347 -0.8718
vn -0.9259 -0.1086 -0.3619
vn 0.6872 0.6986 0.1993
vn -0.6062 0.2972 0.7377
vn -0.0085 0.6728 0.7398
vn 0.2265 -0.9058 -0.3580
usemtl None
s 1
f 1/1/1 3/2/2 2/3/3
f 2/3/3 3/2/2 4/4/4
f 5/5/5 7/6/6 6/7/7
f 6/7/7 7/6/6 8/8/8
f 7/6/6 9/9/9 8/8/8
f 8/8/8 9/9/9 10/10/10
f 11/11/11 13/12/12 12/13/13
f 12/13/13 13/12/12 14/14/14
f 13/12/12 15/15/15 14/14/14
f 14/14/14 15/15/15 16/16/16
f 15/15/15 17/17/17 16/16/16
f 16/16/16 17/17/17 18/18/18
f 19/19/19 21/20/20 20/21/21
f 20/21/21 21/20/20 22/22/22
f 23/23/23 25/24/24 24/25/25
f 24/25/25 25/24/24 26/26/26
f 27/27/27 29/28/28 28/29/29
f 28/29/29 29/28/28 30/30/30
f 29/28/28 31/31/31 30/30/30
f 30/30/30 31/31/31 32/32/32
f 31/31/31 33/33/33 32/32/32
f 32/32/32 33/33/33 34/34/34
f 33/33/33 35/35/35 34/34/34
f 36/36/36 38/37/37 37/38/38
f 37/38/38 38/37/37 39/39/39
f 39/40/39 38/41/37 40/42/40
f 40/42/40 38/41/37 41/43/41
f 42/44/42 4/45/4 43/46/43
f 43/46/43 4/45/4 44/47/44
f 4/45/4 45/48/45 44/47/44
f 44/47/44 45/48/45 46/49/46
f 43/50/43 47/51/47 42/52/42
f 42/52/42 47/51/47 21/53/20
f 47/51/47 27/54/27 21/53/20
f 21/53/20 27/54/27 22/55/22
f 27/54/27 28/56/29 22/55/22
f 22/55/22 28/56/29 34/57/34
f 28/56/29 30/58/30 34/57/34
f 34/57/34 30/58/30 32/59/32
f 48/60/48 50/61/49 49/62/50
f 49/62/50 50/61/49 29/63/28
f 48/64/48 40/42/40 51/65/51
f 51/65/51 40/42/40 41/43/41
f 52/66/52 54/67/53 53/68/54
f 53/68/54 54/67/53 55/69/55
f 54/67/53 56/70/56 55/69/55
f 55/69/55 56/70/56 57/71/57
f 7/72/6 5/73/5 9/74/9
f 9/74/9 5/73/5 58/75/58
f 5/73/5 59/76/59 58/75/58
f 58/75/58 59/76/59 60/77/60
f 59/76/59 61/78/61 60/77/60
f 60/77/60 61/78/61 62/79/62
f 61/78/61 63/80/63 62/79/62
f 62/79/62 63/80/63 64/81/64
f 63/80/63 65/82/65 64/81/64
f 64/81/64 65/82/65 66/83/66
f 65/82/65 67/84/67 66/83/66
f 66/83/66 67/84/67 68/85/68
f 67/84/67 69/86/69 68/85/68
f 68/85/68 69/86/69 55/87/55
f 69/86/69 70/88/70 55/87/55
f 55/87/55 70/88/70 53/89/54
f 70/88/70 71/90/71 53/89/54
f 53/89/54 71/90/71 52/91/52
f 71/90/71 72/92/72 52/91/52
f 52/91/52 72/92/72 43/46/43
f 72/92/72 47/93/47 43/46/43
f 73/94/73 75/95/74 74/96/75
f 74/96/75 75/95/74 24/97/25
f 76/98/76 2/3/3 77/99/77
f 77/99/77 2/3/3 42/52/42
f 2/3/3 4/4/4 42/52/42
f 78/100/78 80/101/79 79/102/80
f 79/102/80 80/101/79 23/103/23
f 80/101/79 81/104/81 23/103/23
f 23/103/23 81/104/81 25/105/24
f 81/104/81 8/8/8 25/105/24
f 25/105/24 8/8/8 26/106/26
f 8/8/8 82/107/82 26/106/26
f 26/106/26 82/107/82 83/108/83
f 82/107/82 84/109/84 83/108/83
f 83/108/83 84/109/84 85/110/85
f 84/109/84 86/111/86 85/110/85
f 85/110/85 86/111/86 87/112/87
f 48/64/48 88/113/88 50/114/49
f 50/114/49 88/113/88 89/115/89
f 88/113/88 51/65/51 89/115/89
f 89/115/89 51/65/51 90/116/90
f 51/65/51 41/43/41 90/116/90
f 91/117/91 92/118/92 79/119/80
f 79/119/80 92/118/92 93/120/93
f 92/118/92 94/121/94 93/120/93
f 93/120/93 94/121/94 95/122/95
f 94/121/94 96/123/96 95/122/95
f 95/122/95 96/123/96 33/33/33
f 77/124/77 19/19/19 76/125/76
f 76/125/76 19/19/19 97/126/97
f 19/19/19 98/127/98 97/126/97
f 97/126/97 98/127/98 99/128/99
f 98/127/98 20/21/21 99/128/99
f 99/128/99 20/21/21 35/129/35
f 20/21/21 22/22/22 35/129/35
f 24/130/25 26/106/26 74/131/75
f 74/131/75 26/106/26 83/108/83
f 66/132/66 68/133/68 57/71/57
f 57/71/57 68/133/68 55/69/55
f 41/134/41 38/135/37 90/136/90
f 90/136/90 38/135/37 36/137/36
f 36/138/36 37/139/38 13/12/12
f 13/12/12 37/139/38 15/15/15
f 100/140/100 102/141/101 101/142/102
f 101/142/102 102/141/101 12/143/13
f 102/141/101 11/144/11 12/143/13
f 19/145/19 77/99/77 21/53/20
f 21/53/20 77/99/77 42/52/42
f 2/146/3 76/125/76 1/147/1
f 1/147/1 76/125/76 97/126/97
f 15/148/15 65/82/65 17/149/17
f 17/149/17 65/82/65 18/150/18
f 65/82/65 59/76/59 18/150/18
f 86/151/86 103/152/103 87/153/87
f 87/153/87 103/152/103 46/49/46
f 103/152/103 44/47/44 46/49/46
f 81/154/81 104/155/104 6/156/7
f 6/156/7 104/155/104 5/157/5
f 104/155/104 16/16/16 5/157/5
f 5/157/5 16/16/16 59/158/59
f 16/16/16 18/18/18 59/158/59
f 74/131/75 83/108/83 73/159/73
f 73/159/73 83/108/83 87/112/87
f 83/108/83 85/110/85 87/112/87
f 39/39/39 40/160/40 105/161/105
f 105/161/105 40/160/40 48/162/48
f 78/163/78 16/16/16 80/164/79
f 80/164/79 16/16/16 81/154/81
f 16/16/16 104/155/104 81/154/81
f 87/112/87 46/165/46 106/166/106
f 106/166/106 46/165/46 45/167/45
f 10/168/10 107/169/107 84/170/84
f 84/170/84 107/169/107 108/171/108
f 107/169/107 109/172/109 108/171/108
f 108/171/108 109/172/109 110/173/110
f 109/172/109 111/174/111 110/173/110
f 110/173/110 111/174/111 44/47/44
f 111/174/111 52/91/52 44/47/44
f 44/47/44 52/91/52 43/46/43
f 84/170/84 108/171/108 86/151/86
f 86/151/86 108/171/108 103/152/103
f 108/171/108 110/173/110 103/152/103
f 103/152/103 110/173/110 44/47/44
f 47/93/47 71/90/71 112/175/112
f 112/175/112 71/90/71 49/176/50
f 71/90/71 113/177/113 49/176/50
f 49/176/50 113/177/113 105/161/105
f 113/177/113 69/86/69 105/161/105
f 105/161/105 69/86/69 39/39/39
f 69/86/69 37/38/38 39/39/39
f 56/178/56 54/179/53 111/174/111
f 111/174/111 54/179/53 52/91/52
f 99/128/99 33/180/33 114/181/114
f 114/181/114 33/180/33 96/182/96
f 24/130/25 91/183/91 23/103/23
f 23/103/23 91/183/91 79/102/80
f 47/51/47 112/184/112 27/54/27
f 27/54/27 112/184/112 29/63/28
f 112/184/112 49/62/50 29/63/28
f 91/183/91 24/130/25 92/185/92
f 92/185/92 24/130/25 75/186/74
f 102/141/101 89/187/89 11/144/11
f 11/144/11 89/187/89 90/136/90
f 66/83/66 57/188/57 64/81/64
f 64/81/64 57/188/57 109/172/109
f 57/188/57 56/178/56 109/172/109
f 109/172/109 56/178/56 111/174/111
f 75/186/74 73/159/73 114/181/114
f 114/181/114 73/159/73 106/166/106
f 73/159/73 87/112/87 106/166/106
f 12/13/13 14/14/14 101/189/102
f 101/189/102 14/14/14 93/120/93
f 14/14/14 78/163/78 93/120/93
f 93/120/93 78/163/78 79/119/80
f 89/115/89 102/190/101 50/114/49
f 50/114/49 102/190/101 29/28/28
f 102/190/101 115/191/115 29/28/28
f 29/28/28 115/191/115 31/31/31
f 115/191/115 100/192/100 31/31/31
f 31/31/31 100/192/100 95/122/95
f 100/192/100 116/193/116 95/122/95
f 95/122/95 116/193/116 93/120/93
f 116/193/116 100/192/100 93/120/93
f 93/120/93 100/192/100 101/189/102
f 15/148/15 37/38/38 65/82/65
f 65/82/65 37/38/38 67/84/67
f 37/38/38 69/86/69 67/84/67
f 96/182/96 94/194/94 75/186/74
f 75/186/74 94/194/94 92/185/92
f 84/109/84 82/107/82 10/10/10
f 10/10/10 82/107/82 8/8/8
f 11/144/11 90/136/90 13/195/12
f 13/195/12 90/136/90 36/137/36
f 1/147/1 106/166/106 3/196/2
f 3/196/2 106/166/106 45/167/45
f 10/168/10 9/74/9 117/197/117
f 117/197/117 9/74/9 62/79/62
f 9/74/9 58/75/58 62/79/62
f 62/79/62 58/75/58 60/77/60
f 99/128/99 106/166/106 97/126/97
f 97/126/97 106/166/106 1/147/1
f 63/80/63 61/78/61 65/82/65
f 65/82/65 61/78/61 59/76/59
f 109/172/109 107/169/107 64/81/64
f 64/81/64 107/169/107 117/197/117
f 107/169/107 10/168/10 117/197/117
f 69/86/69 113/177/113 70/88/70
f 70/88/70 113/177/113 71/90/71
f 64/81/64 117/197/117 62/79/62
f 105/161/105 48/162/48 49/176/50
f 71/90/71 47/93/47 72/92/72
f 6/7/7 8/8/8 81/104/81
f 34/57/34 35/198/35 22/55/22
f 95/122/95 33/33/33 31/31/31
f 33/180/33 99/128/99 35/129/35
f 16/16/16 78/163/78 14/14/14
f 88/199/88 48/200/48 51/201/51
f 96/182/96 75/186/74 114/181/114
f 99/202/99 114/203/114 106/204/106
f 102/190/101 100/192/100 115/191/115
f 3/205/2 45/48/45 4/45/4
f 19/206/19 20/207/21 98/208/98
